<svg width="128" height="125" viewBox="0 0 128 125" fill="none" xmlns="http://www.w3.org/2000/svg">
<g clip-path="url(#clip0)">
<path d="M105.333 0H22.6667C10.1482 0 0 10.1566 0 22.6854V102.218C0 114.747 10.1482 124.903 22.6667 124.903H105.333C117.852 124.903 128 114.747 128 102.218V22.6854C128 10.1566 117.852 0 105.333 0Z" fill="#FA0F00"/>
<path d="M99.5293 93.9176H84.3261C83.6655 93.9298 83.0163 93.7449 82.4609 93.3867C81.9056 93.0284 81.4694 92.513 81.2077 91.9058L64.7026 53.2824C64.6593 53.1322 64.5689 53 64.4448 52.9052C64.3206 52.8104 64.1692 52.7581 64.0131 52.7561C63.8569 52.754 63.7042 52.8024 63.5776 52.8939C63.451 52.9854 63.3572 53.1153 63.3101 53.2643L53.0242 77.7875C52.9685 77.9201 52.9463 78.0645 52.9598 78.2077C52.9733 78.3509 53.0219 78.4886 53.1014 78.6085C53.1809 78.7284 53.2888 78.8267 53.4155 78.8948C53.5421 78.9629 53.6836 78.9985 53.8274 78.9986H65.1341C65.4765 78.9987 65.8113 79.0997 66.0968 79.2889C66.3823 79.4782 66.6058 79.7474 66.7394 80.063L71.6893 91.0881C71.8204 91.3974 71.873 91.7344 71.8423 92.069C71.8116 92.4036 71.6985 92.7253 71.5133 93.0055C71.3281 93.2858 71.0764 93.5157 70.7807 93.6749C70.485 93.834 70.1546 93.9174 69.8189 93.9176H28.6583C28.3488 93.9158 28.0444 93.8374 27.7725 93.6893C27.5006 93.5412 27.2695 93.3281 27.0998 93.0689C26.9302 92.8098 26.8272 92.5126 26.8002 92.204C26.7731 91.8953 26.8228 91.5848 26.9447 91.3L53.1261 28.9007C53.3936 28.2403 53.8539 27.6759 54.4468 27.2813C55.0398 26.8867 55.7378 26.6802 56.4498 26.6887H71.5506C72.2628 26.6794 72.9612 26.8856 73.5543 27.2803C74.1473 27.675 74.6075 28.2398 74.8743 28.9007L101.237 91.3C101.359 91.5843 101.409 91.8944 101.382 92.2026C101.355 92.5108 101.253 92.8077 101.084 93.0667C100.915 93.3258 100.685 93.539 100.413 93.6875C100.142 93.8359 99.8384 93.915 99.5293 93.9176V93.9176Z" fill="white"/>
</g>
<defs>
<clipPath id="clip0">
<rect width="128" height="124.903" fill="white"/>
</clipPath>
</defs>
</svg>
