<?xml version="1.0" encoding="utf-8"?>
<!-- Generator: Adobe Illustrator 27.8.1, SVG Export Plug-In . SVG Version: 6.00 Build 0)  -->
<svg version="1.1" id="Summit_Lockup" xmlns="http://www.w3.org/2000/svg" xmlns:xlink="http://www.w3.org/1999/xlink" x="0px"
	 y="0px" viewBox="0 0 222 26.3" style="enable-background:new 0 0 222 26.3;" xml:space="preserve">
<style type="text/css">
	.st0{fill:#EB1000;}
</style>
<path id="Path_616244" class="st0" d="M108.6,25c-0.1-0.1-0.2-0.1-0.3-0.2v-6c0.1,0,0.2,0,0.4,0c2.2,1.4,4.7,2.1,7.3,2.2
	c2.4,0,3.2-0.9,3.2-1.8c0-0.9-0.6-1.4-3.1-2.4l-1.7-0.7c-4.3-1.7-6.1-3.9-6.1-7.3c0-3.8,2.8-7.6,9.7-7.6c2-0.1,4.1,0.3,6,0.9
	l0.3,0.1V8l-0.4-0.2c-1.9-1-4-1.4-6.2-1.4c-2.2,0-3,1.1-3,1.9c0,0.7,0.3,1.3,3.1,2.4l1.5,0.6c5.3,1.9,6.5,4.3,6.5,7.5
	c0,5-4.3,7.6-10.3,7.6C113.1,26.4,110.8,26,108.6,25L108.6,25z M37.3,1.2v6.6l-0.1,0c-0.6-0.1-1.2-0.2-1.8-0.2
	c-1.2,0-2.3,0.2-3.4,0.6c-1.1,0.4-2.1,1-3,1.8c-0.9,0.8-1.6,1.8-2.1,3C26.3,14.2,26,15.6,26,17c0,1.5,0.3,2.9,0.9,4.2
	c0.5,1.1,1.3,2.1,2.3,2.9c0.9,0.8,2,1.3,3.2,1.7c1.2,0.4,2.4,0.5,3.6,0.5c1.3,0,2.7-0.1,4-0.4c1.2-0.3,2.4-0.6,3.5-1.1V1.2H37.3z
	 M37.3,21L37.3,21c-0.5,0.1-1,0.2-1.4,0.2c-0.6,0-1.3-0.2-1.9-0.5c-0.6-0.3-1.1-0.8-1.4-1.4c-0.4-0.7-0.6-1.5-0.5-2.4
	c0-0.8,0.1-1.7,0.5-2.4c0.3-0.6,0.8-1.1,1.4-1.4c0.6-0.3,1.3-0.4,2-0.4c0.4,0,0.8,0,1.2,0.1l0.1,0L37.3,21L37.3,21z M62,11.8
	c-0.8-1.4-2-2.5-3.4-3.2c-0.7-0.4-1.4-0.6-2.2-0.8c-0.8-0.2-1.6-0.3-2.4-0.3c-1.6,0-3.2,0.4-4.6,1.1c-1.4,0.7-2.6,1.8-3.4,3.2
	c-0.9,1.6-1.3,3.3-1.3,5.2c-0.1,1.8,0.4,3.6,1.3,5.2c0.8,1.4,2,2.5,3.4,3.2c2.9,1.5,6.3,1.5,9.2,0c1.4-0.7,2.6-1.8,3.4-3.2
	c0.9-1.6,1.3-3.4,1.3-5.2C63.3,15.1,62.9,13.3,62,11.8L62,11.8z M56.8,19.3c-0.1,0.3-0.3,0.6-0.5,0.8c-0.2,0.2-0.4,0.4-0.7,0.6
	c-1,0.6-2.2,0.6-3.2,0c-0.5-0.3-0.9-0.8-1.2-1.4c-0.3-0.8-0.5-1.6-0.5-2.4c0-0.8,0.1-1.6,0.5-2.4c0.3-0.6,0.7-1,1.2-1.4
	c1-0.6,2.2-0.6,3.2,0c0.5,0.3,0.9,0.8,1.2,1.4c0.3,0.8,0.5,1.6,0.5,2.4C57.3,17.7,57.1,18.5,56.8,19.3L56.8,19.3z M81.2,12.7
	c-0.5-1.1-1.2-2.1-2-2.9c-0.8-0.7-1.8-1.3-2.9-1.7c-1-0.4-2.1-0.5-3.2-0.5c-0.8,0-1.5,0.1-2.3,0.2l-0.1,0V1.2h-6.1v23.7
	c1.1,0.5,2.2,0.9,3.4,1.1c1.3,0.3,2.6,0.4,3.9,0.4c1.3,0,2.5-0.2,3.7-0.6c1.2-0.4,2.3-1,3.2-1.8c1-0.8,1.7-1.8,2.3-3
	c0.6-1.3,0.9-2.7,0.8-4.2C82,15.4,81.7,14,81.2,12.7z M75.4,19.3c-0.2,0.3-0.4,0.6-0.6,0.8c-0.2,0.2-0.5,0.4-0.8,0.6
	c-0.6,0.3-1.3,0.5-1.9,0.5c-0.4,0-0.8-0.1-1.2-0.2l-0.1,0v-8.1l0.1,0c0.4-0.1,0.9-0.1,1.4-0.1c0.7,0,1.3,0.1,1.9,0.4
	c0.6,0.3,1.1,0.8,1.4,1.3c0.4,0.7,0.6,1.5,0.5,2.3C76,17.7,75.8,18.5,75.4,19.3L75.4,19.3z M100,12.6c-0.2-0.5-0.5-1-0.8-1.5
	c-0.3-0.5-0.7-0.9-1.1-1.2c-0.8-0.7-1.7-1.3-2.7-1.7c-1-0.4-2.1-0.6-3.2-0.6c-1.6,0-3.1,0.4-4.5,1.1c-1.4,0.8-2.5,1.9-3.3,3.2
	c-0.8,1.5-1.3,3.2-1.2,4.9c0,1.4,0.3,2.7,0.8,4c0.5,1.1,1.3,2.2,2.2,3c1,0.8,2.1,1.4,3.3,1.8c1.3,0.4,2.7,0.6,4,0.6
	c1,0,2.1-0.1,3.1-0.4c1-0.2,1.9-0.6,2.8-1v-4.8c-0.9,0.4-1.7,0.7-2.6,1c-0.9,0.2-1.8,0.4-2.7,0.4c-0.9,0-1.8-0.2-2.6-0.5
	c-0.7-0.3-1.4-0.9-1.8-1.5c-0.1-0.2-0.3-0.5-0.4-0.7l-0.1-0.1h11.3c0-0.3,0-0.7,0.1-1c0-0.4,0.1-0.8,0.1-1.2
	C100.7,15.1,100.5,13.8,100,12.6L100,12.6z M89.1,14.9l0-0.1c0.1-0.2,0.1-0.4,0.2-0.7c0.2-0.6,0.7-1.1,1.2-1.5
	c0.5-0.3,1-0.5,1.6-0.5c0.5,0,1,0.1,1.5,0.4c0.5,0.3,0.9,0.7,1.2,1.2c0.2,0.3,0.3,0.7,0.4,1.1l0,0.1L89.1,14.9L89.1,14.9z M13.7,9.3
	L9.2,20.6h5.5l1.9,5.5H0L10.3,1.5h7.2l10.3,24.6h-7.3L13.7,9.3z M209.3,3.3c0,1.8-1.5,3.3-3.3,3.3s-3.3-1.5-3.3-3.3S204.2,0,206,0
	c0,0,0,0,0,0C207.8,0,209.3,1.5,209.3,3.3C209.3,3.3,209.3,3.3,209.3,3.3z M209.1,7.8h-6.3v18.1h6.3V7.8z M137.7,7.8h-0.6v12.6
	c-0.6,0.5-1.3,0.8-2.1,0.8c-1.7,0-2.2-1.1-2.2-2.7V7.8h-6.3v11.4c0,5.3,2.8,7,6.4,7c1.7,0.1,3.4-0.4,4.7-1.5l0,0v1.1h5.7V7.8
	L137.7,7.8L137.7,7.8z M222,12.7V8.1c0-0.2,0-0.2-0.2-0.3v0h-3.1c0,0,0-0.1,0-0.1V2.6l-6.3,0.9v4.3h-2.1v4.9h2.1v8.1
	c0,3.7,2,5.4,5.5,5.4c1.3,0.1,2.5-0.2,3.7-0.6c0.2-0.1,0.3-0.1,0.3-0.1v-3.9c0-0.3-0.2-0.3-0.3-0.3c-0.3,0.1-0.7,0.1-1,0.1
	c-1.4,0-1.8-0.6-1.8-2.1v-6.6L222,12.7L222,12.7z M166,7.5c-2.1,0-4.2,0.7-5.9,2.1c-1.1-1.4-2.8-2.2-4.6-2.1
	c-1.8-0.1-3.6,0.5-5.1,1.6c0,0,0-0.1,0-0.2V7.9h-5.7V26h6.3V13.4c0.6-0.5,1.4-0.9,2.2-0.9c1.1-0.1,2.1,0.8,2.2,1.9
	c0,0.1,0,0.1,0,0.2v11.2h6.3v-0.2c0-0.1,0-0.2,0-0.2V15.2c0-0.4,0-0.9,0-1.3v-0.3c0.6-0.6,1.4-1,2.3-1c1.7,0,2.2,1.1,2.2,2.6v10.8
	h6.3V14.8C172.4,9.4,169.4,7.5,166,7.5L166,7.5z M195.1,7.5c-2.1,0-4.2,0.7-5.9,2.1c-1.1-1.4-2.8-2.2-4.6-2.1
	c-1.8-0.1-3.6,0.5-5.1,1.6c0,0,0-0.1,0-0.2V7.8h-5.7v18.1h6.3V13.4c0.6-0.6,1.4-0.9,2.2-0.9c1.1-0.1,2.1,0.8,2.2,1.9
	c0,0.1,0,0.1,0,0.2V26h6.3v-0.2c0-0.1,0-0.2,0-0.2V15.2c0-0.4,0-0.9,0-1.3v-0.3c0.6-0.6,1.4-1,2.3-1c1.7,0,2.2,1.1,2.2,2.6v10.8h6.3
	V14.8C201.5,9.4,198.5,7.5,195.1,7.5L195.1,7.5z"/>
</svg>
